<?xml version="1.0" encoding="UTF-8" standalone="no"?>
<!-- Created with Inkscape (http://www.inkscape.org/) -->

<svg
   xmlns:dc="http://purl.org/dc/elements/1.1/"
   xmlns:cc="http://creativecommons.org/ns#"
   xmlns:rdf="http://www.w3.org/1999/02/22-rdf-syntax-ns#"
   xmlns:svg="http://www.w3.org/2000/svg"
   xmlns="http://www.w3.org/2000/svg"
   xmlns:sodipodi="http://sodipodi.sourceforge.net/DTD/sodipodi-0.dtd"
   xmlns:inkscape="http://www.inkscape.org/namespaces/inkscape"
   width="303"
   height="175.94525"
   id="svg2"
   version="1.1"
   inkscape:version="0.48.2 r9819"
   sodipodi:docname="anyalogo.svg"
   inkscape:export-filename="/Users/athorp/Programs/anya-site/img/main_logo.png"
   inkscape:export-xdpi="59.405941"
   inkscape:export-ydpi="59.405941">
  <defs
     id="defs4" />
  <sodipodi:namedview
     id="base"
     pagecolor="#ffffff"
     bordercolor="#666666"
     borderopacity="1.0"
     inkscape:pageopacity="0.0"
     inkscape:pageshadow="2"
     inkscape:zoom="1.2261071"
     inkscape:cx="55.803134"
     inkscape:cy="139.50783"
     inkscape:document-units="px"
     inkscape:current-layer="layer1"
     showgrid="false"
     showguides="false"
     inkscape:guide-bbox="true"
     inkscape:window-width="1436"
     inkscape:window-height="856"
     inkscape:window-x="0"
     inkscape:window-y="0"
     inkscape:window-maximized="1"
     fit-margin-top="0"
     fit-margin-left="0"
     fit-margin-right="0"
     fit-margin-bottom="0">
    <sodipodi:guide
       orientation="0,1"
       position="182.64541,84.893537"
       id="guide3186" />
    <sodipodi:guide
       orientation="0,1"
       position="185.81658,0.32903708"
       id="guide3188" />
    <sodipodi:guide
       orientation="1,0"
       position="108.91372,-44.301943"
       id="guide3190" />
    <sodipodi:guide
       orientation="1,0"
       position="161.98278,-42.059583"
       id="guide3192" />
    <sodipodi:guide
       orientation="1,0"
       position="180.29535,-55.513713"
       id="guide3194" />
    <sodipodi:guide
       orientation="1,0"
       position="209.44596,-64.109413"
       id="guide3196" />
    <sodipodi:guide
       orientation="1,0"
       position="81.63173,-25.615653"
       id="guide3198" />
    <sodipodi:guide
       orientation="1,0"
       position="135.44825,-39.817233"
       id="guide3200" />
    <sodipodi:guide
       orientation="0,1"
       position="81.63173,37.061737"
       id="guide3202" />
    <sodipodi:guide
       orientation="0,1"
       position="123.186,51.596267"
       id="guide3204" />
    <sodipodi:guide
       orientation="0,1"
       position="187.15723,106.82865"
       id="guide3846" />
    <sodipodi:guide
       orientation="0,1"
       position="135.44825,116.24882"
       id="guide3848" />
  </sodipodi:namedview>
  <metadata
     id="metadata7">
    <rdf:RDF>
      <cc:Work
         rdf:about="">
        <dc:format>image/svg+xml</dc:format>
        <dc:type
           rdf:resource="http://purl.org/dc/dcmitype/StillImage" />
        <dc:title></dc:title>
      </cc:Work>
    </rdf:RDF>
  </metadata>
  <g
     inkscape:label="Layer 1"
     inkscape:groupmode="layer"
     id="layer1"
     transform="translate(-374.6875,-303.29296)">
    <path
       style="fill:#cd3847;fill-opacity:1"
       d="m 483.60122,394.34466 -27.28199,0 0,42.26563 -18.88173,-42.59467 -31.46875,0 -31.28125,84.89354 30.78125,0 3.9375,-12.12791 23.6875,0 4.78125,12.12791 45.72622,0.32904 0.26426,-37.06174 26.27027,37.06174 26.53453,-0.32904 0,-55.62791 18.51585,18.89521 -0.26426,36.7327 59.17188,0 4.15625,-12.12791 23.9375,0 4.25,12.12791 31.25,0 -32.03125,-84.89354 -61.52279,0.32904 L 570.03125,415 l -14.5,-20.98438 -45.3955,0.32904 0,33.29727 z m 123.33628,16.93659 -22.80404,57.57904 0.26426,-26.68383 z m -185.53125,16.36068 4.95176,14.53453 -9.375,0 z m 208.96875,0 4.57676,14.53453 -8.9375,0 z"
       id="path3181"
       inkscape:connector-curvature="0"
       sodipodi:nodetypes="ccccccccccccccccccccccccccccccccccccccccc" />
    <path
       style="fill:#28292f;fill-opacity:1"
       d="m 601.8689,330.95542 c -4.26003,-4.5346 -1.55742,-9.68555 5.08185,-9.68555 2.69664,0 4.11819,0.66045 5.67126,2.63486 2.59091,3.2938 2.60606,4.83166 0.0726,7.36514 -2.78541,2.78541 -8.05738,2.63227 -10.82569,-0.31445 z"
       id="path3165"
       inkscape:connector-curvature="0" />
    <path
       style="fill:#28292f;fill-opacity:1"
       d="m 640.16777,325.22219 c -4.59783,-4.64695 -9.18658,-8.13852 -13.47093,-10.25 -5.93012,-2.92257 -7.28417,-3.19357 -15.5,-3.10218 -8.04824,0.0895 -10.43291,0.60493 -22.50225,4.86343 -23.62564,8.33599 -28.47748,9.53643 -38.54365,9.53643 -7.74527,0 -9.41221,-0.29374 -10.88172,-1.91753 -4.35733,-4.8148 1.25603,-10.36882 11.62275,-11.49988 3.46644,-0.3782 13.27762,-2.52531 21.80262,-4.77135 25.14071,-6.62369 42.34472,-6.38184 54.54289,0.76676 6.81665,3.99483 24.01663,23.422 20.73683,23.422 -0.45835,0 -3.97129,-3.17146 -7.80654,-7.04768 z"
       id="path3163"
       inkscape:connector-curvature="0" />
    <path
       style="fill:#28292f;fill-opacity:1"
       d="m 451.69459,322.21925 c -26.5972,-7.68764 -40.83608,-9.58712 -48.34576,-6.44938 -3.20941,1.34098 -8.52261,5.74592 -8.23355,5.00474 0.1695,-0.43459 4.88986,-5.26322 6.10183,-6.52825 5.42682,-5.66439 16.01875,-7.14496 34.97748,-4.88927 4.95,0.58894 16.06106,1.38197 24.69125,1.76228 14.71049,0.64826 15.85118,0.84173 18.25,3.09531 3.21192,3.01744 3.3104,7.00042 0.2443,9.88088 -3.55746,3.34206 -11.49173,2.80434 -27.68555,-1.87631 z"
       id="path3054"
       inkscape:connector-curvature="0"
       sodipodi:nodetypes="sssssssss" />
    <path
       style="fill:#28292f;fill-opacity:1;stroke:none"
       d="m 475.89447,360.23667 5.3125,5.34375 c 0,0 1.56657,-0.57374 2.1875,-1.21875 0.62098,-0.64502 0.90891,-2.27618 -0.0312,-4.125 -1.93259,-2.86474 -4.53859,-5.03918 -8.2813,-6.09375 -57.80564,0.17497 -62.72752,0.92204 -67.09375,1.6875 7.94241,11.53197 -4.60777,13.38437 -14.9375,15.0625 3.21178,1.57357 6.43298,3.15942 10.53125,4.4375 -3.04363,1.25266 -4.28373,4.62583 -5.5625,7.9375 3.53983,-1.64359 6.70391,-4.67522 10.78125,-4.4375 l 0.0937,2.9375 c 4.47779,-2.69817 8.92226,-5.45799 14.28125,-6.6875 l 0.6875,2.71875 c 2.00114,-1.9317 4.04401,-3.57864 6.34375,-3.71875 1.39357,0.0617 1.48786,1.76616 1.71875,3.28125 l 2.375,-1.59375 c 6.53085,1.25537 12.3952,0.88787 18.34375,0.6875 -5.51477,-1.34957 -11.40812,-2.67164 -13.71875,-4.3125 1.21873,-2.48225 4.32226,-10.50465 8.75,-10.40625 l 5.09375,0.0937 -0.125,3.1875 c 0,0 1.33057,-1.19582 2.15625,-1.46875 0.82981,-0.2743 2.42593,-0.15582 2.78878,-0.125 -0.0903,0.58473 -0.15064,1.10851 -0.13253,1.65625 -0.24085,3.53859 2.48118,6.08173 5.34375,6.96875 0.85197,0.30435 1.7622,0.46875 2.71875,0.46875 1.39843,0 2.82599,-0.16954 4.64333,-1.31107 1.78323,-1.12009 3.91582,-3.72973 5.73167,-10.97018 z"
       id="path3206"
       inkscape:connector-curvature="0"
       sodipodi:nodetypes="cccccccccccccccccccccscccssc" />
    <path
       style="fill:#28292f;fill-opacity:1;stroke:none"
       d="m 466.85154,340.65811 c 3.04627,2.29325 5.80816,5.15526 9.40568,6.346 l -1.47318,1.47318 c 4.4432,1.32914 6.52911,3.83692 8.61243,6.346 -2.87555,-6.07915 -3.59815,-13.26552 -16.54493,-14.16518 z"
       id="path3976"
       inkscape:connector-curvature="0"
       sodipodi:nodetypes="ccccc" />
    <path
       style="fill:#28292f;fill-opacity:1;stroke:none"
       d="M 297.46875,89.75 C 296.07434,92.78562 263.10487,94.16691 252,92.21875 236.84523,89.56011 216.79382,99.16312 217.4375,100.5 l 43,0.34375 c -0.027,0.239 -0.0255,0.47391 -0.0312,0.71875 -0.002,0.0646 -0.0312,0.12251 -0.0312,0.1875 0,0.0618 -10e-4,0.12602 0,0.1875 -0.28103,7.09975 8.94303,11.09162 14.59375,5.34375 2.62447,-2.66959 3.96815,3.19399 3.28125,3.46875 -4.13446,3.31514 -19.43735,2.10621 -30.09375,2.78125 0,0 20.19766,1.27331 24.71875,0.90625 5.82738,-0.47312 9.21915,-2.94802 9.28125,-4.3125 0.11746,-2.58014 3.69856,-0.39315 5.09375,0.46875 l 0.21875,-3.625 c 1.87581,0.33908 3.24546,0.21222 5.6875,2.25 l 0.4375,-1.90625 5.4375,1.46875 c 3.79284,1.02723 8.68264,-2.16541 11,-4.25 0,0 -4.53762,1.59001 -7.9375,1.3125 -4.23945,-0.34605 -9.77237,-7.671207 -10.46875,-7.65625 4.4038,-3.583434 6.21963,-6.347723 5.84375,-8.4375 z"
       transform="translate(341.45697,262.74292)"
       id="path3978"
       inkscape:connector-curvature="0" />
    <path
       style="fill:#28292f;fill-opacity:1;stroke:none"
       d="m 619.61215,345.04209 c 4.19843,5.29061 12.5724,8.43909 12.46536,6.45932 -0.22052,-4.07856 -7.93131,-5.4597 -12.46536,-6.45932 z"
       id="path3980"
       inkscape:connector-curvature="0"
       sodipodi:nodetypes="csc" />
  </g>
</svg>
